<svg width="30" height="32" viewBox="0 0 30 32" fill="none" xmlns="http://www.w3.org/2000/svg">
<path fill-rule="evenodd" clip-rule="evenodd" d="M7.5625 9.61114C7.5625 5.38832 10.9115 2 15 2C19.0885 2 22.4375 5.38832 22.4375 9.61114C22.4375 13.8223 19.1069 17.2036 15.0338 17.2222C15.0225 17.2222 15.0113 17.2222 15 17.2222C14.9887 17.2222 14.9775 17.2222 14.9662 17.2222C10.8931 17.2036 7.5625 13.8223 7.5625 9.61114ZM10.3722 17.9902C7.49627 16.3389 5.5625 13.1972 5.5625 9.61114C5.5625 4.32236 9.76871 0 15 0C20.2313 0 24.4375 4.32236 24.4375 9.61114C24.4375 13.1972 22.5037 16.3389 19.6278 17.9902C25.3753 19.9607 29.5 25.5003 29.5 32H27.5C27.5 24.9358 21.9037 19.2417 15.0354 19.2222C15.0236 19.2223 15.0118 19.2223 15 19.2223C14.9882 19.2223 14.9764 19.2223 14.9646 19.2222C8.0963 19.2417 2.5 24.9358 2.5 32H0.5C0.5 25.5003 4.62468 19.9607 10.3722 17.9902Z" fill="white"/>
</svg>
