<svg width="30" height="30" viewBox="0 0 30 30" fill="none" xmlns="http://www.w3.org/2000/svg">
<path fill-rule="evenodd" clip-rule="evenodd" d="M5.14981 20.4916C0.913295 16.255 0.913295 9.38631 5.14981 5.1498C9.38632 0.913284 16.2551 0.913285 20.4916 5.1498C24.7281 9.38631 24.7281 16.255 20.4916 20.4916C16.2551 24.7281 9.38632 24.7281 5.14981 20.4916ZM3.7551 3.75509C-1.25169 8.76188 -1.25169 16.8795 3.7551 21.8863C8.48417 26.6153 15.9885 26.8776 21.0255 22.6732L28.3523 30L29.747 28.6053L22.4394 21.2977C26.8857 16.2623 26.7013 8.57015 21.8863 3.75509C16.8795 -1.2517 8.76189 -1.2517 3.7551 3.75509Z" fill="white"/>
</svg>
